<?xml version="1.0" encoding="utf-8"?>
<!-- Generator: Adobe Illustrator 24.3.0, SVG Export Plug-In . SVG Version: 6.00 Build 0)  -->
<svg version="1.1" id="icon-0" xmlns:svgjs="http://svgjs.dev/svgjs"
	 xmlns="http://www.w3.org/2000/svg" xmlns:xlink="http://www.w3.org/1999/xlink" x="0px" y="0px" viewBox="0 0 194.3 36.1"
	 style="enable-background:new 0 0 194.3 36.1;" xml:space="preserve">
<style type="text/css">
	.st0{fill:#FC9C3D;}
	.st1{display:none;fill:none;}
	.st2{fill:#FFFFFF;}
	.st3{fill-rule:evenodd;clip-rule:evenodd;fill:#2332DD;}
</style>
<g transform="matrix(0.7,0,0,0.7,149.57575757575756,442.51328195022415)">
	<g id="tight-bounds" transform="matrix(1,0,0,1,0.2400000000000091,0.049099941075155584)">
		<g>
			<g>
				<path id="r_x24_-0" d="M-142.4-621.8L-142.4-621.8c0.8,0,1.4,1.2,1.4,2.7v26.3c0,1.5-0.6,2.7-1.4,2.7l0,0
					c-0.8,0-1.4-1.2-1.4-2.7v-26.3C-143.9-620.6-143.2-621.8-142.4-621.8z"/>
			</g>
			<g transform="matrix(1,0,0,1,159.9362910033931,12.596894948504179)">
				<g id="textblocktransform">
					<g>
						<g transform="matrix(1,0,0,1,0,0)">
							<g id="text-0">
								<path d="M-268.8-633.8h9.1v30.6h-5.8v-15.9l0.3-8.9h-0.1l-8.6,24.9h-5.3l-8.5-24.9h-0.1l0.3,8.9v15.9h-5.9v-30.6h9.4
									l5.6,16.7l2,6.9h0.1l2-6.9L-268.8-633.8z M-231.5-633.8h6.7l-11.3,30.6h-7.6l-11.3-30.6h6.9l6.5,19.4l1.8,6l1.7-6
									L-231.5-633.8z M-222.9-633.8h27.3v5.1H-206v25.4h-6.5v-25.4h-10.4V-633.8z M-166.5-603.3h-23.9v-30.6h23.2v5.1h-16.8v7.6
									h13.2v4.9h-13.2v7.8h17.4V-603.3z M-140.1-613.5l6,1.8c-0.6,2-1.5,3.6-2.8,5c-1.3,1.3-2.8,2.3-4.6,3c-1.8,0.6-3.7,1-5.8,1
									l0,0c-3.1,0-5.7-0.6-8-1.9c-2.2-1.3-4-3.1-5.2-5.4c-1.2-2.3-1.8-5.2-1.8-8.4l0,0c0-3.3,0.6-6.1,1.8-8.4
									c1.2-2.3,2.9-4.2,5.2-5.4c2.2-1.3,4.9-1.9,7.9-1.9l0,0c2.1,0,4.1,0.3,5.8,0.9c1.7,0.6,3.2,1.5,4.4,2.6
									c1.2,1.2,2.1,2.7,2.6,4.4l0,0l-5.9,2.5c-0.5-1.9-1.3-3.2-2.4-4c-1.1-0.8-2.5-1.2-4.2-1.2l0,0c-1.7,0-3.2,0.4-4.4,1.2
									c-1.3,0.8-2.2,2-2.9,3.5c-0.7,1.6-1,3.5-1,5.8l0,0c0,2.3,0.3,4.2,1,5.7c0.6,1.6,1.6,2.8,2.8,3.6c1.3,0.8,2.8,1.2,4.6,1.2
									l0,0c1.7,0,3.2-0.4,4.4-1.3C-141.5-610.3-140.6-611.7-140.1-613.5L-140.1-613.5z M-108.5-633.8h6.5v30.6h-6.5V-633.8z
									 M-128.6-633.8h6.5v30.6h-6.5V-633.8z M-125.3-621.3h20.3v5.1h-20.3V-621.3z"/>
							</g>
						</g>
					</g>
				</g>
			</g>
			<g>
				<g>
					<g>
						<path class="st0" d="M-194-606.9l6.1,6l21.7-21.4c0.4,0.2,0.8,0.3,1.3,0.3c1.6,0,2.9-1.3,2.9-2.9s-1.3-2.9-2.9-2.9
							s-2.9,1.3-2.9,2.9c0,0.4,0.1,0.9,0.3,1.3l-20.3,20.1l-3.4-3.3l15.2-14.9c0.4,0.2,0.8,0.3,1.3,0.3c1.6,0,2.9-1.3,2.9-2.9
							c0-1.6-1.3-2.8-2.9-2.8s-2.9,1.3-2.9,2.9c0,0.4,0.1,0.9,0.3,1.3L-194-606.9z M-165-625.8c0.6,0,1,0.4,1,1c0,0.6-0.4,1-1,1
							s-1-0.4-1-1C-166-625.3-165.5-625.8-165-625.8z M-174.8-625.3c0.6,0,1,0.4,1,1s-0.4,1-1,1c-0.6,0-1-0.4-1-1
							S-175.4-625.3-174.8-625.3z"/>
						<path class="st0" d="M-183.6-620.3l-6.1-6l-16.5,16.3c-0.4-0.2-0.8-0.3-1.3-0.3c-1.6,0-2.9,1.3-2.9,2.9s1.3,2.9,2.9,2.9
							s2.9-1.3,2.9-2.9c0-0.4-0.1-0.9-0.3-1.3l15.2-14.9l3.4,3.3l-20.3,20.1c-0.4-0.2-0.8-0.3-1.3-0.3c-1.6,0-2.9,1.3-2.9,2.9
							c0,1.6,1.3,2.9,2.9,2.9s2.9-1.3,2.9-2.9c0-0.4-0.1-0.9-0.3-1.3L-183.6-620.3z M-207.4-606.4c-0.6,0-1-0.4-1-1s0.4-1,1-1
							s1,0.4,1,1S-206.9-606.4-207.4-606.4z M-207.9-596.6c-0.6,0-1-0.4-1-1c0-0.6,0.4-1,1-1s1,0.4,1,1
							C-206.9-597.1-207.3-596.6-207.9-596.6z"/>
						<path class="st0" d="M-168.2-605.1l-6.1-6l-21.7,21.4c-0.4-0.2-0.8-0.3-1.3-0.3c-1.6,0-2.9,1.3-2.9,2.9s1.3,2.9,2.9,2.9
							c1.6,0,2.9-1.3,2.9-2.9c0-0.4-0.1-0.9-0.3-1.3l20.3-20.1l3.4,3.3l-15.2,14.9c-0.4-0.2-0.8-0.3-1.3-0.3c-1.6,0-2.9,1.3-2.9,2.9
							s1.3,2.9,2.9,2.9s2.9-1.3,2.9-2.9c0-0.4-0.1-0.9-0.3-1.3L-168.2-605.1z M-197.2-586.2c-0.6,0-1-0.4-1-1s0.4-1,1-1
							c0.6,0,1,0.4,1,1S-196.6-586.2-197.2-586.2z M-187.3-586.6c-0.6,0-1-0.4-1-1s0.4-1,1-1c0.6,0,1,0.4,1,1
							C-186.4-587-186.8-586.6-187.3-586.6z"/>
						<path class="st0" d="M-154.8-607.4c-1.6,0-2.9,1.3-2.9,2.9c0,0.4,0.1,0.9,0.3,1.3l-15.2,14.9l-3.4-3.3l20.3-20.1
							c0.4,0.2,0.8,0.3,1.3,0.3c1.6,0,2.9-1.3,2.9-2.9s-1.3-2.9-2.9-2.9s-2.9,1.3-2.9,2.9c0,0.4,0.1,0.9,0.3,1.3l-21.7,21.4l6.1,6
							l16.5-16.3c0.4,0.2,0.8,0.3,1.3,0.3c1.6,0,2.9-1.3,2.9-2.9C-151.8-606.1-153.2-607.4-154.8-607.4z M-154.3-615.3
							c0.6,0,1,0.4,1,1s-0.4,1-1,1c-0.6,0-1-0.4-1-1S-154.8-615.3-154.3-615.3z M-154.8-603.6c-0.6,0-1-0.4-1-1s0.4-1,1-1
							c0.6,0,1,0.4,1,1S-154.2-603.6-154.8-603.6z"/>
					</g>
				</g>
			</g>
		</g>
		<rect x="-210.8" y="-627.7" class="st1" width="268.8" height="43.5"/>
	</g>
</g>
<path class="st2" d="M94.8-86.6v-3l10.6-14.5H94.8v-4.3h17.3v3l-10.6,14.5h10.6v4.3H94.8z"/>
<path class="st2" d="M125.9-93.7v-9.3h5.2v16.4h-5v-3h-0.2c-0.4,1-1,1.8-1.9,2.4c-0.9,0.6-1.9,0.9-3.1,0.9c-1.1,0-2.1-0.3-2.9-0.8
	c-0.8-0.5-1.5-1.2-2-2.1c-0.5-0.9-0.7-2-0.7-3.2V-103h5.2v9.4c0,0.9,0.2,1.6,0.7,2.1c0.5,0.5,1.1,0.8,1.9,0.8c0.5,0,1-0.1,1.4-0.3
	c0.4-0.2,0.7-0.6,1-1C125.8-92.5,125.9-93.1,125.9-93.7z"/>
<path class="st2" d="M134.4-86.6v-21.8h5.2v8.3h0.1c0.2-0.5,0.5-1,0.9-1.4c0.4-0.5,0.9-0.8,1.5-1.1c0.6-0.3,1.4-0.4,2.2-0.4
	c1.1,0,2.2,0.3,3.2,0.9c1,0.6,1.8,1.5,2.4,2.8c0.6,1.2,0.9,2.8,0.9,4.8c0,1.9-0.3,3.4-0.9,4.7c-0.6,1.2-1.4,2.2-2.4,2.8
	c-1,0.6-2.1,0.9-3.3,0.9c-0.8,0-1.5-0.1-2.1-0.4c-0.6-0.3-1.1-0.6-1.5-1.1c-0.4-0.4-0.7-0.9-0.9-1.4h-0.2v2.7H134.4z M139.5-94.8
	c0,0.9,0.1,1.6,0.4,2.3c0.2,0.7,0.6,1.2,1,1.5c0.5,0.4,1,0.5,1.6,0.5c0.6,0,1.2-0.2,1.6-0.5c0.4-0.4,0.8-0.9,1-1.5
	c0.2-0.7,0.4-1.4,0.4-2.3c0-0.9-0.1-1.6-0.4-2.3c-0.2-0.6-0.6-1.1-1-1.5c-0.4-0.4-1-0.5-1.6-0.5c-0.6,0-1.2,0.2-1.6,0.5
	c-0.4,0.3-0.8,0.8-1,1.5C139.6-96.5,139.5-95.7,139.5-94.8z"/>
<path class="st2" d="M158.2-86.4c-1,0-2-0.2-2.8-0.5c-0.8-0.4-1.4-0.9-1.9-1.6c-0.5-0.7-0.7-1.6-0.7-2.7c0-0.9,0.2-1.7,0.5-2.3
	s0.8-1.1,1.3-1.5c0.6-0.4,1.2-0.7,1.9-0.9c0.7-0.2,1.5-0.3,2.3-0.4c0.9-0.1,1.7-0.2,2.2-0.3c0.6-0.1,1-0.2,1.2-0.4
	c0.3-0.2,0.4-0.4,0.4-0.8v-0.1c0-0.5-0.2-1-0.6-1.3c-0.4-0.3-0.9-0.4-1.5-0.4c-0.7,0-1.2,0.1-1.7,0.4c-0.4,0.3-0.7,0.7-0.8,1.2
	l-4.8-0.2c0.1-1,0.5-1.9,1.1-2.7c0.6-0.8,1.4-1.4,2.5-1.9c1-0.5,2.3-0.7,3.8-0.7c1,0,2,0.1,2.9,0.4c0.9,0.2,1.6,0.6,2.3,1.1
	c0.7,0.5,1.2,1,1.5,1.7c0.4,0.7,0.5,1.4,0.5,2.3v11.1h-4.9v-2.3h-0.1c-0.3,0.6-0.7,1-1.1,1.4c-0.4,0.4-1,0.7-1.6,0.9
	C159.6-86.5,159-86.4,158.2-86.4z M159.8-89.8c0.6,0,1.1-0.1,1.5-0.3c0.5-0.2,0.8-0.5,1.1-0.9c0.3-0.4,0.4-0.9,0.4-1.4V-94
	c-0.1,0.1-0.3,0.1-0.5,0.2c-0.2,0.1-0.4,0.1-0.7,0.2s-0.5,0.1-0.8,0.1c-0.3,0-0.5,0.1-0.8,0.1c-0.5,0.1-0.9,0.2-1.3,0.4
	c-0.3,0.2-0.6,0.4-0.8,0.6c-0.2,0.3-0.3,0.6-0.3,0.9c0,0.5,0.2,1,0.6,1.2C158.7-89.9,159.2-89.8,159.8-89.8z"/>
<path class="st2" d="M171.2-86.6v-3l7.6-9.2V-99h-7.3v-4H185v3.3l-7,8.9v0.1h7.3v4H171.2z"/>
<path class="st3" d="M65.8-97.5c0-6.6,5.4-12,12-12c6.6,0,12,5.4,12,12c-6.6,0-12-5.4-12-12C77.8-102.8,72.5-97.5,65.8-97.5z
	 M77.8-85.5c0-6.6,5.4-12,12-12C89.8-90.8,84.5-85.5,77.8-85.5z M77.8-85.5c0-6.6-5.4-12-12-12C65.8-90.8,71.2-85.5,77.8-85.5z"/>
</svg>
